<mxfile host="app.diagrams.net" modified="2024-05-18T08:19:56.527Z" agent="Mozilla/5.0 (Windows NT 10.0; Win64; x64) AppleWebKit/537.36 (KHTML, like Gecko) Chrome/122.0.0.0 Safari/537.36" etag="p1oHDkvsCvx9kfuNLfKY" version="24.4.4" type="github">
  <diagram name="第 1 页" id="QBMNA9uGJ03YhTUgKhHr">
    <mxGraphModel dx="1434" dy="772" grid="1" gridSize="10" guides="1" tooltips="1" connect="1" arrows="1" fold="1" page="1" pageScale="1" pageWidth="827" pageHeight="1169" math="0" shadow="0">
      <root>
        <mxCell id="0" />
        <mxCell id="1" parent="0" />
        <mxCell id="qmGw7dkvHfkvTGYTSxJt-1" value="Context" style="swimlane;fontStyle=1;align=center;verticalAlign=top;childLayout=stackLayout;horizontal=1;startSize=26;horizontalStack=0;resizeParent=1;resizeParentMax=0;resizeLast=0;collapsible=1;marginBottom=0;whiteSpace=wrap;html=1;" vertex="1" parent="1">
          <mxGeometry x="160" y="80" width="160" height="100" as="geometry" />
        </mxCell>
        <mxCell id="qmGw7dkvHfkvTGYTSxJt-2" value="+ strategy" style="text;strokeColor=none;fillColor=none;align=left;verticalAlign=top;spacingLeft=4;spacingRight=4;overflow=hidden;rotatable=0;points=[[0,0.5],[1,0.5]];portConstraint=eastwest;whiteSpace=wrap;html=1;" vertex="1" parent="qmGw7dkvHfkvTGYTSxJt-1">
          <mxGeometry y="26" width="160" height="26" as="geometry" />
        </mxCell>
        <mxCell id="qmGw7dkvHfkvTGYTSxJt-3" value="" style="line;strokeWidth=1;fillColor=none;align=left;verticalAlign=middle;spacingTop=-1;spacingLeft=3;spacingRight=3;rotatable=0;labelPosition=right;points=[];portConstraint=eastwest;strokeColor=inherit;" vertex="1" parent="qmGw7dkvHfkvTGYTSxJt-1">
          <mxGeometry y="52" width="160" height="8" as="geometry" />
        </mxCell>
        <mxCell id="qmGw7dkvHfkvTGYTSxJt-4" value="+ setStrategy(strategy)&lt;div&gt;+ doSomething()&lt;/div&gt;" style="text;strokeColor=none;fillColor=none;align=left;verticalAlign=top;spacingLeft=4;spacingRight=4;overflow=hidden;rotatable=0;points=[[0,0.5],[1,0.5]];portConstraint=eastwest;whiteSpace=wrap;html=1;" vertex="1" parent="qmGw7dkvHfkvTGYTSxJt-1">
          <mxGeometry y="60" width="160" height="40" as="geometry" />
        </mxCell>
        <mxCell id="qmGw7dkvHfkvTGYTSxJt-7" value="" style="group" vertex="1" connectable="0" parent="1">
          <mxGeometry x="440" y="80" width="110" height="100" as="geometry" />
        </mxCell>
        <mxCell id="qmGw7dkvHfkvTGYTSxJt-5" value="«interface»&lt;br&gt;&lt;b&gt;Strategy&lt;/b&gt;" style="html=1;whiteSpace=wrap;" vertex="1" parent="qmGw7dkvHfkvTGYTSxJt-7">
          <mxGeometry width="110" height="50" as="geometry" />
        </mxCell>
        <mxCell id="qmGw7dkvHfkvTGYTSxJt-6" value="+ execute(data)" style="html=1;whiteSpace=wrap;align=left;" vertex="1" parent="qmGw7dkvHfkvTGYTSxJt-7">
          <mxGeometry y="50" width="110" height="50" as="geometry" />
        </mxCell>
        <mxCell id="qmGw7dkvHfkvTGYTSxJt-8" value="Client" style="html=1;whiteSpace=wrap;" vertex="1" parent="1">
          <mxGeometry x="200" y="280" width="110" height="40" as="geometry" />
        </mxCell>
        <mxCell id="qmGw7dkvHfkvTGYTSxJt-9" value="ConcreateStrategies" style="swimlane;fontStyle=1;align=center;verticalAlign=top;childLayout=stackLayout;horizontal=1;startSize=26;horizontalStack=0;resizeParent=1;resizeParentMax=0;resizeLast=0;collapsible=1;marginBottom=0;whiteSpace=wrap;html=1;" vertex="1" parent="1">
          <mxGeometry x="440" y="280" width="160" height="86" as="geometry" />
        </mxCell>
        <mxCell id="qmGw7dkvHfkvTGYTSxJt-10" value="+&amp;nbsp;" style="text;strokeColor=none;fillColor=none;align=left;verticalAlign=top;spacingLeft=4;spacingRight=4;overflow=hidden;rotatable=0;points=[[0,0.5],[1,0.5]];portConstraint=eastwest;whiteSpace=wrap;html=1;" vertex="1" parent="qmGw7dkvHfkvTGYTSxJt-9">
          <mxGeometry y="26" width="160" height="26" as="geometry" />
        </mxCell>
        <mxCell id="qmGw7dkvHfkvTGYTSxJt-11" value="" style="line;strokeWidth=1;fillColor=none;align=left;verticalAlign=middle;spacingTop=-1;spacingLeft=3;spacingRight=3;rotatable=0;labelPosition=right;points=[];portConstraint=eastwest;strokeColor=inherit;" vertex="1" parent="qmGw7dkvHfkvTGYTSxJt-9">
          <mxGeometry y="52" width="160" height="8" as="geometry" />
        </mxCell>
        <mxCell id="qmGw7dkvHfkvTGYTSxJt-12" value="&lt;span style=&quot;text-align: center;&quot;&gt;+ execute(data)&lt;/span&gt;" style="text;strokeColor=none;fillColor=none;align=left;verticalAlign=top;spacingLeft=4;spacingRight=4;overflow=hidden;rotatable=0;points=[[0,0.5],[1,0.5]];portConstraint=eastwest;whiteSpace=wrap;html=1;" vertex="1" parent="qmGw7dkvHfkvTGYTSxJt-9">
          <mxGeometry y="60" width="160" height="26" as="geometry" />
        </mxCell>
      </root>
    </mxGraphModel>
  </diagram>
</mxfile>
